# xmcd
#
# Track frame offsets: 
#        150
#        10115
#        19157
#        28242
#        37252
#        47305
#        59230
#        69020
#        78335
#        85860
#        94930
#        105230
#        114025
#        122700
#        133860
#        144200
#        153615
#        164220
#        174050
#        184280
#        193550
#        202667
#        211570
#        220895
#        230130
#
# Disc length: 3172 seconds
#
# Revision: 8
# Processed by: cddbd v1.5.2PL0 Copyright (c) Steve Scherf et al.
# Submitted via: ExactAudioCopyFreeDBPlugin 1.0
#
DISCID=4f0c6219
DTITLE=Fats Domino - Antoine "Fats" Domino:  "They Call Me The Fat Man
DTITLE=. . ." - The Legendary Imperial Recordings) [box set]
DYEAR=1991
DGENRE=Rhythm and Blues
TTITLE0=When I See You
TTITLE1=I Still Love You
TTITLE2=I Want You to Know
TTITLE3=Yes My Darling
TTITLE4=Don't You Know I Love You
TTITLE5=Sick and Tired
TTITLE6=No No (The River)
TTITLE7=I'm Gonna Be a Wheel Someday
TTITLE8=Whole Lotta Loving
TTITLE9=Darktown Strutters' Ball
TTITLE10=Margie (version #2)
TTITLE11=I Hear You Knocking
TTITLE12=Lil' Liza Jane
TTITLE13=When the Saints Go Marching In
TTITLE14=Country Boy
TTITLE15=I'm Ready
TTITLE16=I Want to Walk You Home
TTITLE17=I've Been Around
TTITLE18=Be My Guest
TTITLE19=Tell Me That You Love Me
TTITLE20=Walking to New Orleans
TTITLE21=Don't Come Knockin'
TTITLE22=La-La (version #2)
TTITLE23=Put Your Arms Around Me Honey
TTITLE24=Three Times a Week
EXTD=ANTOINE "FATS" DOMINO "THEY CALL ME THE FAT MAN" - The Legendary 
EXTD=Imperial Recordings\n4 Disc-Boxset\nDigitally remastered\nCD 1: 1
EXTD=949 - 1955\nCD 2: 1955 - 1957\nCD 3: 1957 - 1960\nCD 4: 1960 - 19
EXTD=62\nLabel: EMI\nE2 7 96784-2
EXTT0=Domino, Fats
EXTT1=Domino, Fats
EXTT2=Domino, Fats
EXTT3=Domino, Fats
EXTT4=Domino, Fats
EXTT5=Domino, Fats
EXTT6=Domino, Fats
EXTT7=Domino, Fats
EXTT8=Domino, Fats
EXTT9=Domino, Fats
EXTT10=Domino, Fats
EXTT11=Domino, Fats
EXTT12=Domino, Fats
EXTT13=Domino, Fats
EXTT14=Domino, Fats
EXTT15=Domino, Fats
EXTT16=Domino, Fats
EXTT17=Domino, Fats
EXTT18=Domino, Fats
EXTT19=Domino, Fats
EXTT20=Domino, Fats
EXTT21=Domino, Fats
EXTT22=Domino, Fats
EXTT23=Domino, Fats
EXTT24=Domino, Fats
PLAYORDER=
